<svg width="130" height="20" viewBox="0 0 130 20" fill="none" xmlns="http://www.w3.org/2000/svg">
<path d="M1.05137 18.6148C2.00165 18.512 2.87488 18.1781 2.87488 16.406V6.98023H0.974317V6.13269H2.87488C3.05466 2.10041 5.41752 0.225538 8.0629 0.199854C9.14159 0.199854 11.0678 0.559419 12.275 2.51135L10.1176 3.89824L9.88641 3.79551C9.52684 1.89495 8.78203 0.970352 7.83175 0.970352C6.80442 0.996035 6.0596 2.20315 6.0596 3.92393V6.13269H9.50116L9.47548 6.98023H6.0596V16.406C6.0596 18.1781 7.08693 18.512 8.11426 18.6148V19H1.05137V18.6148ZM12.365 19.2311C10.2076 19.2311 8.6666 17.7415 8.6666 15.7125C8.6666 12.9131 11.5945 11.1666 15.8579 11.8857V10.2934C15.8579 8.44418 14.5481 7.67368 13.1098 7.67368C11.9027 7.67368 10.4387 8.21303 9.38573 9.80539L9.00048 9.70266C9.64256 7.77642 11.5431 6.02995 14.2655 5.97859C17.0137 5.9529 19.017 7.67368 19.017 10.1393V16.406C19.017 17.0224 19.094 17.5874 19.5306 17.5874C19.6334 17.5874 19.8131 17.5617 19.9415 17.4847L20.1213 17.6388C19.7618 18.4093 18.9913 19.2055 17.8612 19.2055C16.7055 19.2055 15.9606 18.4093 15.8579 17.4333C15.1388 18.3836 13.983 19.2311 12.365 19.2311ZM11.6715 15.3016C11.6715 16.5601 12.2879 17.7672 13.7262 17.7672C14.6251 17.7672 15.3699 17.2535 15.8579 16.5858V12.5535C13.2896 12.2196 11.6715 13.3497 11.6715 15.3016ZM19.6863 18.6148C20.6622 18.512 21.5868 18.1781 21.5868 16.406V3.15343C21.5868 1.38128 20.6365 1.22718 19.6863 1.27855L19.6092 0.918985L24.7716 -0.00561121V8.44418C25.6448 6.98023 27.083 5.97859 28.8038 5.97859C30.8328 5.97859 32.8104 7.3398 32.8104 10.0879V16.406C32.8104 18.1781 33.7093 18.512 34.6596 18.6148V19H28.0076V18.6148C28.8552 18.512 29.6257 18.1781 29.6257 16.406V10.4988C29.6257 8.75238 28.4956 8.03325 27.3656 8.00756C26.4666 8.00756 25.542 8.4185 24.7716 9.21468V16.406C24.7716 18.1781 25.6191 18.512 26.5437 18.6148V19H19.6863V18.6148ZM40.3175 19.2311C37.2612 19.2311 34.2819 16.9453 34.2819 12.5792C34.2819 8.49555 36.6962 5.97859 40.1634 5.97859C43.8618 5.97859 45.6596 8.8808 45.6339 12.2453H37.5694C37.6978 15.7382 39.4186 17.4076 41.5503 17.4076C42.8858 17.4076 44.2213 16.7912 45.3257 15.43L45.6339 15.5071C44.9918 17.3049 43.1427 19.2311 40.3175 19.2311ZM37.5694 11.4491H42.4749C42.4235 9.26604 41.7301 6.77477 40.112 6.77477C38.4426 6.77477 37.6721 9.42014 37.5694 11.4491ZM52.4211 19.2311C49.3648 19.2311 46.3855 16.9453 46.3855 12.5792C46.3855 8.49555 48.7997 5.97859 52.267 5.97859C55.9654 5.97859 57.7632 8.8808 57.7375 12.2453H49.673C49.8014 15.7382 51.5222 17.4076 53.6539 17.4076C54.9894 17.4076 56.3249 16.7912 57.4293 15.43L57.7375 15.5071C57.0954 17.3049 55.2462 19.2311 52.4211 19.2311ZM49.673 11.4491H54.5785C54.5271 9.26604 53.8337 6.77477 52.2156 6.77477C50.5462 6.77477 49.7757 9.42014 49.673 11.4491ZM72.8127 18.6148C73.6603 18.512 74.4051 18.1781 74.4051 16.406V10.4988C74.4051 8.82943 73.4034 8.08462 72.1706 8.08462C71.3745 8.08462 70.5783 8.44418 69.8335 9.18899C69.8848 9.47151 69.9105 9.75403 69.9105 10.0879V16.406C69.9105 18.1781 70.681 18.512 71.5286 18.6148V19H65.2105V18.6148C66.058 18.512 66.8028 18.1781 66.8028 16.406V10.4988C66.8028 8.80375 65.8269 8.08462 64.5941 8.08462C63.7722 8.08462 63.0017 8.44418 62.3083 9.16331V16.406C62.3083 18.1781 63.0788 18.512 63.9777 18.6148V19H57.3V18.6148C58.276 18.512 59.2006 18.1781 59.2006 16.406V8.7267C59.2006 6.95455 58.276 6.62067 57.3 6.51794V6.13269H62.3083V8.46986C63.2586 6.92887 64.5427 5.97859 66.2378 5.97859C67.8815 5.97859 69.2684 6.8775 69.7307 8.67533C70.7067 7.00592 72.0679 5.97859 73.8144 5.97859C75.8177 5.97859 77.5384 7.3398 77.5384 10.0879V16.406C77.5384 18.1781 78.4374 18.512 79.362 18.6148V19H72.8127V18.6148ZM80.6356 19.1798C78.7864 19.1798 78.7864 16.4317 80.6356 16.4317C82.4335 16.4317 82.4335 19.1798 80.6356 19.1798ZM85.1954 8.80375C85.0926 7.16002 84.5533 6.82613 83.5003 6.77477L83.603 6.44089L86.5823 6.33815L87.0189 16.2519L93.0801 6.31247L93.7736 6.38952L94.3129 17.2792C95.6484 16.0721 96.5987 14.942 97.1894 14.0688C99.578 10.7557 99.3211 8.36713 98.6277 6.92887L98.6534 6.7234L100.297 6.15837C100.734 7.31412 101.401 9.67698 97.9856 14.0688C96.984 15.353 95.5457 16.894 93.2342 19H92.8747L92.438 8.5726L85.9915 19H85.709L85.1954 8.80375ZM104.423 19.3339C101.573 19.2568 99.8261 16.7142 100.879 12.5278C101.881 8.67533 104.911 6.107 107.788 6.18405C110.639 6.23542 112.231 8.75238 111.204 12.8617C110.202 16.8169 107.3 19.4109 104.423 19.3339ZM102.574 12.5535C101.701 15.918 102.42 18.6918 104.603 18.7432C106.786 18.7945 108.661 16.0464 109.509 12.8103C110.356 9.57424 109.817 6.82613 107.634 6.77477C105.451 6.7234 103.37 9.47151 102.574 12.5535ZM114.093 8.93216C114.632 7.16002 114.478 6.7234 113.219 6.69772L113.322 6.36384H116.43L114.632 12.2453C117.252 6.7234 119.743 5.97859 121.335 6.33815L120.719 7.90483L120.565 7.87915C118.767 7.36548 115.891 9.00921 113.219 16.9197L112.577 19H110.985L114.093 8.93216ZM122.942 2.84523C123.481 1.07309 122.736 0.918985 121.452 1.09877L121.478 0.790569L125.408 -0.00561121L122.017 11.0125C125.664 10.4732 127.359 8.2644 128.156 6.49225L128.284 6.36384H129.876C129.183 8.16166 127.462 10.165 123.224 11.1666C123.404 11.295 123.558 11.5005 123.661 11.8601L125.253 16.5087C125.69 17.7672 126.101 18.4863 126.666 18.4863C127.385 18.4863 128.335 17.4076 129.286 15.841L129.543 15.9694C128.695 17.6645 127.359 19.3339 125.896 19.3339C124.843 19.3339 124.303 18.4607 123.995 17.5104L121.992 11.3978C121.966 11.4234 121.94 11.4234 121.889 11.4234L119.577 19H118.011L122.942 2.84523Z" fill="black" style="fill:black;fill-opacity:1;"/>
</svg>
